<svg width="24" height="24" viewBox="0 0 24 24" fill="none" xmlns="http://www.w3.org/2000/svg">
    <path d="M3.625 16.61c.804.444 6.621 3.797 10.758 1.213 4.137-2.585 3.909-7.038 3.909-9.079.375-.785 1.166-1.184 1.166-3.31-.777.72-1.55.964-2.318.734-.753-1.147-1.789-1.655-3.107-1.522-1.977.198-2.701 2.138-2.488 4.648-3.05 1.542-5.44-1.117-6.672-3.126-.412 1.582-.81 3.481 0 5.582.539 1.4 1.835 2.584 3.888 3.552-2.08 1.128-3.793 1.563-5.136 1.307z" fill="#F67066"/>
    <path fill-rule="evenodd" clip-rule="evenodd" d="M17.515 5.613c-.398-.547-.877-.97-1.441-1.247-.638-.313-1.346-.418-2.103-.342-1.223.123-2.077.804-2.565 1.805-.417.855-.562 1.926-.512 3.073-1.138.44-2.14.202-3.03-.366C6.846 7.886 6 6.81 5.405 5.84a.625.625 0 0 0-1.137.17c-.417 1.6-.863 3.667.021 5.963.507 1.316 1.571 2.41 3.1 3.312-1.52.681-2.724.885-3.647.71a.625.625 0 0 0-.42 1.16c.02.01.042.023.066.037.5.277 2.151 1.197 4.2 1.761 2.135.588 4.837.83 7.127-.602 4.245-2.652 4.217-7.148 4.203-9.289v-.166c.058-.102.132-.209.226-.344l.014-.019c.122-.174.272-.388.41-.65.3-.566.515-1.3.515-2.45a.625.625 0 0 0-1.049-.458c-.585.54-1.078.7-1.519.637zm-1.992-.125c-.398-.195-.867-.277-1.427-.22-.755.075-1.252.463-1.566 1.109-.333.682-.464 1.668-.362 2.865a.625.625 0 0 1-.34.61c-1.76.89-3.355.556-4.637-.262C6.4 9.084 5.722 8.394 5.17 7.69c-.21 1.19-.24 2.468.286 3.834.458 1.19 1.59 2.278 3.571 3.211a.625.625 0 0 1 .031 1.115c-1.078.585-2.092 1.006-3.032 1.24.562.234 1.204.468 1.894.658 2.01.554 4.285.698 6.132-.457 3.638-2.273 3.624-6.095 3.616-8.263l-.001-.285c0-.093.02-.185.061-.27.118-.247.266-.457.389-.633l.004-.006c.13-.184.24-.343.342-.535.087-.165.172-.365.238-.626a2.56 2.56 0 0 1-1.74.093.625.625 0 0 1-.344-.256c-.327-.498-.694-.827-1.094-1.023z" fill="#F67066"/>
</svg>
