<svg width="118" height="97" viewBox="0 0 118 97" fill="none" xmlns="http://www.w3.org/2000/svg">
<path fill-rule="evenodd" clip-rule="evenodd" d="M30.5 26.4716C27.2121 28.3736 25 31.9284 25 36C25 40.0716 27.2121 43.6264 30.5 45.5284C28.882 46.4643 27.0036 47 25 47C18.9249 47 14 42.0751 14 36C14 29.9249 18.9249 25 25 25C27.0036 25 28.882 25.5357 30.5 26.4716Z" fill="#F1DA63"/>
<rect x="12" y="80" width="94" height="7" rx="3.5" fill="#24272D"/>
<path fill-rule="evenodd" clip-rule="evenodd" d="M54.052 31C54.052 27.134 57.186 24 61.052 24H80.2099C84.0759 24 87.2099 27.134 87.2099 31V50.5263H93.4731C97.3391 50.5263 100.473 53.6603 100.473 57.5263V76.6842C100.473 80.5502 97.3391 83.6842 93.4731 83.6842H79.8415C75.9755 83.6842 72.8415 80.5502 72.8415 76.6842V70.4211H67.3152V76.6842C67.3152 80.5502 64.1812 83.6842 60.3152 83.6842H46.6836C42.8176 83.6842 39.6836 80.5502 39.6836 76.6842V44.2632C39.6836 40.3972 42.8176 37.2632 46.6836 37.2632H54.052V31Z" fill="#3D65CE"/>
<rect x="60.6846" y="30.6328" width="6.63158" height="6.63158" fill="#CEC180"/>
<rect x="73.9482" y="30.6328" width="6.63158" height="6.63158" fill="#CEC180"/>
<rect x="60.6846" y="43.8955" width="6.63158" height="6.63158" fill="#CEC180"/>
<rect x="47.4219" y="43.8955" width="6.63158" height="6.63158" fill="#CEC180"/>
<rect x="47.4219" y="57.1592" width="6.63158" height="6.63158" fill="#CEC180"/>
<rect x="47.4219" y="70.4219" width="6.63158" height="6.63158" fill="#CEC180"/>
<rect x="73.9482" y="43.8955" width="6.63158" height="6.63158" fill="#CEC180"/>
<rect x="60.6846" y="57.1592" width="6.63158" height="6.63158" fill="#CEC180"/>
<rect x="73.9482" y="57.1592" width="6.63158" height="6.63158" fill="#CEC180"/>
<rect x="87.2109" y="57.1592" width="6.63158" height="6.63158" fill="#CEC180"/>
<rect x="87.2109" y="70.4219" width="6.63158" height="6.63158" fill="#CEC180"/>
</svg>
