<svg width="24" height="24" viewBox="0 0 24 24" fill="none" xmlns="http://www.w3.org/2000/svg">
    <g clip-path="url(#nzh6kop8ha)">
        <path d="m18.428 14.91-2.262-.257a1.773 1.773 0 0 0-1.46.507l-1.64 1.64a13.4 13.4 0 0 1-5.87-5.87l1.649-1.648c.383-.383.57-.918.507-1.461l-.258-2.244A1.783 1.783 0 0 0 7.322 4H5.78c-1.007 0-1.844.837-1.782 1.844.472 7.606 6.556 13.68 14.153 14.153 1.007.062 1.844-.775 1.844-1.782v-1.54a1.765 1.765 0 0 0-1.568-1.764z" fill="#fff"/>
    </g>
    <defs>
        <clipPath id="nzh6kop8ha">
            <path fill="#fff" transform="matrix(-1 0 0 1 24 0)" d="M0 0h24v24H0z"/>
        </clipPath>
    </defs>
</svg>
