<svg width="28" height="28" viewBox="0 0 28 28" fill="none" xmlns="http://www.w3.org/2000/svg">
    <circle cx="14" cy="14" r="13" fill="#131416"/>
    <path d="M20.234 14.292c-1.308-3.4-5.967-3.584-4.842-8.525a.42.42 0 0 0-.625-.459c-3.025 1.784-5.2 5.359-3.375 10.042.15.383-.3.742-.625.492-1.508-1.142-1.666-2.784-1.533-3.959.05-.433-.517-.641-.758-.283-.567.867-1.142 2.267-1.142 4.375.317 4.667 4.258 6.1 5.675 6.283 2.025.259 4.217-.116 5.792-1.558 1.733-1.608 2.366-4.175 1.433-6.408zm-7.733 4.191c1.2-.291 1.816-1.158 1.983-1.925.275-1.191-.8-2.358-.075-4.241.275 1.558 2.725 2.533 2.725 4.233.067 2.108-2.217 3.917-4.633 1.933z" fill="#4886DB" fill-opacity=".7"/>
</svg>
