<svg width="100" height="40" viewBox="0 0 100 40" fill="none" xmlns="http://www.w3.org/2000/svg">
<rect width="100" height="40" rx="10" fill="#F1F3F5"/>
<path d="M37.66 16.802V22.78C39.704 22.766 41.244 22.682 43.008 22.374L43.162 23.564C41.244 23.914 39.536 23.984 37.254 23.984H36.218V15.626H42.098V16.802H37.66ZM47.474 19.294V20.484H45.5V27.092H44.058V14.422H45.5V19.294H47.474ZM57.1749 17.054V15.906H50.0069V14.8H58.6029V18.09H51.4489V19.266H58.8549V20.372H50.0349V17.054H57.1749ZM51.4909 23.396V25.664H58.8829V26.84H50.0489V23.396H51.4909ZM48.5649 21.366H60.0449V22.528H48.5649V21.366ZM75.0323 14.436V20.96H73.5763V14.436H75.0323ZM72.4003 19.658L71.7563 20.764C70.2583 20.344 69.1803 19.406 68.6063 18.244C68.0463 19.532 66.9403 20.554 65.4003 21.044L64.7143 19.91C66.6743 19.322 67.8223 17.824 67.8503 16.256H65.1063V15.094H72.0223V16.256H69.3203C69.3623 17.726 70.4823 19.112 72.4003 19.658ZM68.1863 25.846H75.4103V26.966H66.7723V23.69H73.6043V22.626H66.7443V21.534H75.0323V24.726H68.1863V25.846ZM86.0493 18.412V16.144H80.3513V18.412H86.0493ZM87.4633 14.996V19.56H78.9373V14.996H87.4633ZM80.3233 23.186V25.664H87.6733V26.84H78.8813V23.186H80.3233ZM77.4813 20.806H88.9473V21.968H84.0473V24.334H82.6053V21.968H77.4813V20.806Z" fill="#666C76"/>
<g clip-path="url(#clip0_4209_60715)">
<path fill-rule="evenodd" clip-rule="evenodd" d="M18.9317 11.909C19.4143 10.5849 20.8805 9.9021 22.2065 10.3841L28.0888 12.5221C29.4147 13.0041 30.0984 14.4682 29.6158 15.7924L27.4748 21.6666C26.9922 22.9908 25.5261 23.6735 24.2001 23.1916L22.134 22.4406V20.3978C22.134 18.9887 20.9901 17.8463 19.579 17.8463H16.7687C16.7757 17.8253 16.7831 17.8042 16.7908 17.7832L18.9317 11.909ZM22.7147 14.2118C22.5418 14.6862 22.0164 14.9309 21.5412 14.7582C21.0661 14.5855 20.8211 14.0608 20.9941 13.5863C21.167 13.1118 21.6924 12.8672 22.1675 13.0399C22.6427 13.2126 22.8877 13.7373 22.7147 14.2118ZM22.8901 17.647C23.3653 17.8197 23.8907 17.575 24.0636 17.1005C24.2366 16.626 23.9916 16.1014 23.5164 15.9287C23.0413 15.756 22.5159 16.0006 22.343 16.4751C22.17 16.9496 22.415 17.4743 22.8901 17.647ZM25.4125 19.9893C25.2396 20.4638 24.7142 20.7084 24.239 20.5357C23.7639 20.363 23.5189 19.8384 23.6919 19.3639C23.8648 18.8894 24.3902 18.6447 24.8653 18.8174C25.3405 18.9901 25.5854 19.5148 25.4125 19.9893Z" fill="#666C76"/>
<path fill-rule="evenodd" clip-rule="evenodd" d="M12.7818 18.4131C11.3722 18.4131 10.2295 19.5558 10.2295 20.9653V27.2184C10.2295 28.628 11.3722 29.7706 12.7818 29.7706H19.0348C20.4444 29.7706 21.587 28.628 21.587 27.2184V20.9653C21.587 19.5558 20.4444 18.4131 19.0348 18.4131H12.7818ZM13.6538 22.7519C14.1589 22.7519 14.5683 22.3425 14.5683 21.8374C14.5683 21.3323 14.1589 20.9228 13.6538 20.9228C13.1487 20.9228 12.7392 21.3323 12.7392 21.8374C12.7392 22.3425 13.1487 22.7519 13.6538 22.7519ZM14.5683 26.3464C14.5683 26.8515 14.1589 27.2609 13.6538 27.2609C13.1487 27.2609 12.7392 26.8515 12.7392 26.3464C12.7392 25.8413 13.1487 25.4318 13.6538 25.4318C14.1589 25.4318 14.5683 25.8413 14.5683 26.3464ZM18.1628 22.7519C18.6679 22.7519 19.0773 22.3425 19.0773 21.8374C19.0773 21.3323 18.6679 20.9228 18.1628 20.9228C17.6577 20.9228 17.2482 21.3323 17.2482 21.8374C17.2482 22.3425 17.6577 22.7519 18.1628 22.7519ZM16.8228 24.0919C16.8228 24.597 16.4134 25.0064 15.9083 25.0064C15.4032 25.0064 14.9937 24.597 14.9937 24.0919C14.9937 23.5868 15.4032 23.1773 15.9083 23.1773C16.4134 23.1773 16.8228 23.5868 16.8228 24.0919ZM18.1628 27.2609C18.6679 27.2609 19.0773 26.8515 19.0773 26.3464C19.0773 25.8413 18.6679 25.4318 18.1628 25.4318C17.6577 25.4318 17.2482 25.8413 17.2482 26.3464C17.2482 26.8515 17.6577 27.2609 18.1628 27.2609Z" fill="#666C76"/>
</g>
<defs>
<clipPath id="clip0_4209_60715">
<rect width="20" height="20" fill="white" transform="translate(10 10)"/>
</clipPath>
</defs>
</svg>
