<svg width="200" height="200" viewBox="0 0 200 200" fill="none" xmlns="http://www.w3.org/2000/svg">
<circle cx="100" cy="100" r="97.5" stroke="#5F6FF9" stroke-width="5"/>
<g clip-path="url(#clip0_2726_30716)">
<path d="M56.463 118.055L81.9505 87.9965C83.6721 85.9726 86.7411 85.7103 88.7621 87.4343L143.405 133.909C145.426 135.633 145.688 138.706 143.966 140.73L118.479 170.789C116.757 172.813 113.688 173.075 111.667 171.351L57.0244 124.876C55.0033 123.115 54.7414 120.079 56.463 118.055Z" fill="#D366E3"/>
<path d="M55.9764 118.542L81.4638 88.4838C83.1854 86.4599 86.2544 86.1976 88.2755 87.9216L142.918 134.396C144.939 136.12 145.201 139.194 143.48 141.218L117.992 171.276C116.271 173.3 113.202 173.563 111.181 171.839L56.5378 125.364C54.4793 123.64 54.2547 120.604 55.9764 118.542Z" fill="url(#paint0_linear_2726_30716)"/>
<path d="M75.7751 112.508L65.5576 124.539C64.9588 125.251 63.9108 125.326 63.2372 124.726C62.5261 124.127 62.4512 123.077 63.05 122.403L73.2675 110.372C73.8663 109.66 74.9142 109.585 75.5879 110.184C76.299 110.784 76.3739 111.833 75.7751 112.508Z" fill="#D366E3"/>
<path d="M71.5475 59.7427C73.7179 55.9783 74.2293 52.2051 72.6899 51.315C71.1505 50.4249 68.1431 52.755 65.9728 56.5194C63.8024 60.2838 63.2909 64.057 64.8303 64.9471C66.3698 65.8371 69.3772 63.5071 71.5475 59.7427Z" fill="#2F855C"/>
<path d="M60.1978 58.2382C61.9663 56.4672 59.9165 51.5431 55.6194 47.2399C51.3224 42.9368 46.4053 40.8841 44.6368 42.6551C42.8682 44.4261 44.918 49.3502 49.2151 53.6534C53.5121 57.9565 58.4292 60.0092 60.1978 58.2382Z" fill="#2F855C"/>
<path d="M60.6528 57.8065C62.4214 56.0355 60.3716 51.1114 56.0745 46.8083C51.7775 42.5051 46.8603 40.4524 45.0918 42.2235C43.3233 43.9945 45.3731 48.9186 49.6702 53.2217C53.9672 57.5249 58.8843 59.5776 60.6528 57.8065Z" fill="#40B582"/>
<path d="M61.2534 160.632C67.3304 160.632 72.2568 158.601 72.2568 156.097C72.2568 153.592 67.3304 151.562 61.2534 151.562C55.1764 151.562 50.25 153.592 50.25 156.097C50.25 158.601 55.1764 160.632 61.2534 160.632Z" fill="#2F855C"/>
<path d="M61.2534 160.032C67.3304 160.032 72.2568 158.002 72.2568 155.497C72.2568 152.992 67.3304 150.962 61.2534 150.962C55.1764 150.962 50.25 152.992 50.25 155.497C50.25 158.002 55.1764 160.032 61.2534 160.032Z" fill="#40B582"/>
<path d="M71.236 59.5454C73.4064 55.781 73.9178 52.0078 72.3784 51.1177C70.839 50.2276 67.8316 52.5577 65.6612 56.3221C63.4909 60.0865 62.9794 63.8597 64.5188 64.7498C66.0583 65.6399 69.0656 63.3098 71.236 59.5454Z" fill="#40B582"/>
<path d="M145.212 102.727C149.404 101.602 152.43 99.2965 151.97 97.577C151.51 95.8576 147.738 95.3757 143.546 96.5007C139.353 97.6256 136.327 99.9315 136.787 101.651C137.247 103.37 141.019 103.852 145.212 102.727Z" fill="#2F855C"/>
<path d="M159.774 114.898C164.071 110.595 166.121 105.671 164.352 103.9C162.584 102.129 157.666 104.182 153.369 108.485C149.072 112.788 147.023 117.712 148.791 119.483C150.56 121.254 155.477 119.201 159.774 114.898Z" fill="#2F855C"/>
<path d="M159.369 114.469C163.666 110.165 165.716 105.241 163.948 103.47C162.179 101.699 157.262 103.752 152.965 108.055C148.668 112.358 146.618 117.282 148.387 119.053C150.155 120.824 155.072 118.772 159.369 114.469Z" fill="#40B582"/>
<path d="M145.093 102.359C149.286 101.234 152.312 98.9278 151.852 97.2084C151.392 95.4889 147.62 95.007 143.427 96.132C139.235 97.257 136.209 99.5628 136.669 101.282C137.129 103.002 140.901 103.484 145.093 102.359Z" fill="#40B582"/>
<path d="M124.393 37.136L150.479 67.3071C152.238 69.3685 152.013 72.4418 149.992 74.2033L95.1625 121.728C93.104 123.489 90.0351 123.264 88.276 121.24L62.1897 91.0692C60.4307 89.0078 60.6552 85.9345 62.6763 84.1729L117.506 36.6113C119.527 34.8497 122.634 35.0746 124.393 37.136Z" fill="#5B13CE"/>
<path d="M123.981 36.6864L150.067 66.8575C151.826 68.9189 151.601 71.9923 149.58 73.7538L94.7504 121.278C92.6919 123.04 89.6229 122.815 87.8639 120.791L61.7776 90.6196C60.0186 88.5583 60.2431 85.4849 62.2641 83.7234L117.057 36.1992C119.115 34.4377 122.221 34.6625 123.981 36.6864Z" fill="#5F6FF9"/>
<path d="M126.226 57.45L115.896 45.494C115.297 44.8194 115.372 43.77 116.046 43.1703C116.72 42.5706 117.768 42.6456 118.366 43.3202L128.696 55.2387C129.295 55.9134 129.22 56.9628 128.546 57.5625C127.873 58.1996 126.825 58.1247 126.226 57.45Z" fill="#5B13CE"/>
<path d="M61.7029 152.836L62.938 154.073C63.0128 154.148 63.1251 154.185 63.3123 154.185L66.0818 154.373C66.4561 154.41 66.6432 154.635 66.3438 154.785L64.3602 155.759C64.2479 155.797 64.2105 155.909 64.2105 155.984L64.697 157.371C64.7719 157.558 64.3602 157.708 64.0234 157.633L61.5532 156.996C61.4035 156.959 61.2538 156.959 61.1041 156.996L58.6339 157.633C58.2971 157.708 57.8854 157.558 57.9603 157.371L58.4468 155.984C58.4842 155.909 58.4094 155.834 58.2971 155.759L56.3135 154.785C56.0141 154.635 56.2012 154.41 56.5755 154.373L59.345 154.185C59.4948 154.185 59.6445 154.11 59.7193 154.073L60.9544 152.836C60.9918 152.686 61.5158 152.686 61.7029 152.836Z" fill="#2F855C"/>
<path d="M154.408 108.873H156.167C156.28 108.873 156.392 108.798 156.504 108.723L158.6 106.924C158.899 106.661 159.161 106.736 159.087 107.036L158.375 109.135C158.338 109.247 158.338 109.36 158.413 109.397L159.723 110.034C159.91 110.109 159.723 110.522 159.423 110.709L157.215 111.983C157.103 112.058 156.991 112.171 156.916 112.283L155.643 114.494C155.456 114.794 155.082 114.982 154.97 114.794L154.333 113.483C154.296 113.408 154.221 113.408 154.071 113.445L151.976 114.157C151.676 114.27 151.601 113.97 151.863 113.67L153.66 111.571C153.772 111.459 153.809 111.309 153.809 111.234V109.472C153.772 109.247 154.146 108.873 154.408 108.873Z" fill="#2F855C"/>
<path d="M55.5653 48.5301V50.3666C55.5653 50.479 55.6401 50.5915 55.7524 50.7414L57.6612 52.9527C57.9231 53.2525 57.8857 53.5524 57.5489 53.4399L55.3407 52.6903C55.2284 52.6528 55.1162 52.6528 55.0787 52.7278L54.4051 54.0771C54.2928 54.2645 53.8811 54.0771 53.6939 53.7398L52.3466 51.416C52.2717 51.3036 52.1595 51.1537 52.0098 51.0787L49.6893 49.7294C49.3525 49.542 49.1653 49.1298 49.3525 49.0173L50.6998 48.3427C50.7747 48.3052 50.8121 48.1928 50.7373 48.0803L49.9887 45.869C49.8764 45.5692 50.1759 45.4942 50.4753 45.7566L52.6834 47.668C52.7957 47.7805 52.9454 47.8554 53.0577 47.8554H54.8916C55.191 47.8929 55.5653 48.2677 55.5653 48.5301Z" fill="#2F855C"/>
<path d="M66.8303 56.6261L67.9531 56.4762C68.028 56.4762 68.1028 56.4012 68.1777 56.3263L69.3753 54.977C69.5251 54.7896 69.7122 54.7896 69.6748 55.0145L69.4128 56.4387C69.4128 56.5137 69.4128 56.5886 69.4502 56.5886L70.3484 56.8885C70.4607 56.9259 70.3859 57.1883 70.1987 57.3382L68.8888 58.3502C68.8139 58.4251 68.7391 58.5001 68.7017 58.5751L68.0654 60.1117C67.9906 60.3366 67.7286 60.4865 67.6537 60.3741L67.1298 59.587C67.0923 59.5495 67.0549 59.5495 66.98 59.587L65.7075 60.2616C65.5204 60.3366 65.4456 60.1867 65.5953 59.9618L66.5684 58.4626C66.6058 58.3877 66.6432 58.2752 66.6432 58.2377L66.4935 57.1133C66.4561 56.9259 66.6432 56.6636 66.8303 56.6261Z" fill="#2F855C"/>
<path d="M144.153 97.3287L145.351 97.8908C145.426 97.9283 145.538 97.9283 145.65 97.8908L147.821 97.4411C148.12 97.3661 148.307 97.5161 148.12 97.666L146.736 98.7529C146.661 98.8278 146.623 98.8653 146.661 98.9403L147.297 99.7648C147.372 99.8773 147.11 100.065 146.81 100.102L144.752 100.215C144.64 100.215 144.49 100.252 144.415 100.327L142.619 101.301C142.357 101.451 142.02 101.414 142.02 101.264L142.132 100.252C142.132 100.177 142.095 100.14 141.982 100.14L140.261 99.9147C139.999 99.8773 140.074 99.6899 140.373 99.5774L142.469 98.8278C142.581 98.7904 142.693 98.7154 142.731 98.6779L143.442 97.5535C143.592 97.3661 144.003 97.2537 144.153 97.3287Z" fill="#2F855C"/>
</g>
<defs>
<linearGradient id="paint0_linear_2726_30716" x1="99.7218" y1="86.7803" x2="99.7218" y2="172.98" gradientUnits="userSpaceOnUse">
<stop stop-color="#FFAAFC"/>
<stop offset="1" stop-color="#E7A4FF"/>
</linearGradient>
<clipPath id="clip0_2726_30716">
<rect width="121" height="138" fill="white" transform="translate(44 35)"/>
</clipPath>
</defs>
</svg>
