<svg width="18" height="18" viewBox="0 0 18 18" fill="none" xmlns="http://www.w3.org/2000/svg">
<path d="M9.73767 5.62087L9.70568 7.19224C9.69972 7.48006 10.0413 7.63088 10.2502 7.43541L11.3966 6.36192L12.8837 6.87662C13.155 6.97068 13.4054 6.69141 13.2825 6.4331L12.6149 5.01116L13.5604 3.75809C13.7326 3.53142 13.5447 3.20588 13.2622 3.2417L11.7071 3.43232L10.8095 2.14324C10.6472 1.90761 10.2802 1.98481 10.226 2.26682L9.92818 3.81204L8.42531 4.26812C8.15155 4.35133 8.1114 4.72251 8.36364 4.86127L9.73767 5.62087Z" fill="#F1F3F5"/>
<path fill-rule="evenodd" clip-rule="evenodd" d="M10.4967 5.18352L10.4761 6.19638L11.2143 5.50516L12.1743 5.83743L11.7438 4.92048L12.3566 4.10832L11.3499 4.23172L10.7712 3.40078L10.579 4.39832L9.6089 4.69271L10.4967 5.18352ZM10.2502 7.43541C10.0413 7.63088 9.69972 7.48006 9.70568 7.19224L9.73767 5.62087L8.36363 4.86127C8.1114 4.72251 8.15155 4.35133 8.42531 4.26812L9.92818 3.81204L10.226 2.26682C10.2802 1.98481 10.6472 1.90761 10.8095 2.14324L11.7071 3.43232L13.2622 3.2417C13.5447 3.20588 13.7326 3.53142 13.5604 3.75809L12.6149 5.01116L13.2825 6.4331C13.4054 6.69141 13.155 6.97068 12.8837 6.87662L11.3966 6.36192L10.2502 7.43541Z" fill="#F1F3F5"/>
<path d="M13.4027 15.0053L14.4912 16.139C14.6905 16.3467 15.0386 16.2119 15.0482 15.9259L15.0997 14.3562L16.5152 13.6686C16.7736 13.5433 16.7532 13.1688 16.4836 13.073L15.0061 12.5396L14.7886 10.985C14.7501 10.703 14.387 10.6057 14.2126 10.8307L13.2478 12.0651L11.7015 11.7883C11.4202 11.7364 11.2152 12.0506 11.3763 12.2883L12.2584 13.5915L11.5182 14.9767C11.3834 15.2291 11.6175 15.52 11.894 15.4397L13.4027 15.0053Z" fill="#F1F3F5"/>
<path fill-rule="evenodd" clip-rule="evenodd" d="M13.6302 14.1593L14.3318 14.8901L14.365 13.8793L15.2788 13.4354L14.326 13.0914L14.185 12.0839L13.5604 12.883L12.5637 12.7046L13.1331 13.5459L12.6553 14.44L13.6302 14.1593ZM15.0482 15.9259C15.0386 16.2119 14.6905 16.3467 14.4912 16.139L13.4027 15.0053L11.894 15.4397C11.6175 15.52 11.3834 15.2291 11.5182 14.9767L12.2584 13.5915L11.3763 12.2883C11.2152 12.0506 11.4202 11.7364 11.7015 11.7883L13.2478 12.0651L14.2126 10.8307C14.387 10.6057 14.7501 10.703 14.7886 10.985L15.0061 12.5396L16.4836 13.073C16.7532 13.1688 16.7736 13.5433 16.5152 13.6686L15.0997 14.3562L15.0482 15.9259Z" fill="#F1F3F5"/>
<path d="M2.90314 7.80123L1.39359 7.36362C1.11711 7.28338 0.883041 7.57423 1.01778 7.82665L1.75798 9.21184L0.875915 10.515C0.714839 10.7528 0.919786 11.0669 1.20111 11.015L2.74738 10.7383L3.71306 11.9758C3.88742 12.2008 4.25052 12.1035 4.28901 11.8215L4.50738 10.27L5.98487 9.73657C6.25445 9.64086 6.27488 9.26634 6.01651 9.14099L4.60102 8.4534L4.54946 6.8837C4.53993 6.59773 4.19179 6.46287 3.99248 6.67061L2.90314 7.80123Z" fill="#F1F3F5"/>
<path fill-rule="evenodd" clip-rule="evenodd" d="M3.12912 8.64761L2.15611 8.36555L2.63273 9.25747L2.0633 10.0988L3.06043 9.9203L3.68631 10.7224L3.82768 9.71804L4.78007 9.37418L3.86628 8.9303L3.833 7.91707L3.12912 8.64761ZM1.01778 7.82665C0.883041 7.57423 1.11711 7.28338 1.39359 7.36362L2.90314 7.80123L3.99248 6.67061C4.19179 6.46287 4.53993 6.59773 4.54946 6.8837L4.60102 8.4534L6.01651 9.14099C6.27488 9.26634 6.25445 9.64086 5.98487 9.73657L4.50738 10.27L4.28901 11.8215C4.25052 12.1035 3.88742 12.2008 3.71306 11.9758L2.74738 10.7383L1.20111 11.015C0.919787 11.0669 0.714839 10.7528 0.875916 10.515L1.75798 9.21184L1.01778 7.82665Z" fill="#F1F3F5"/>
<path fill-rule="evenodd" clip-rule="evenodd" d="M8.9408 6.08238C9.03342 6.26762 8.95833 6.49287 8.77309 6.58549L5.77309 8.08549C5.58785 8.17811 5.3626 8.10303 5.26998 7.91779C5.17736 7.73255 5.25244 7.50729 5.43768 7.41467L8.43768 5.91467C8.62292 5.82205 8.84818 5.89714 8.9408 6.08238Z" fill="#F1F3F5"/>
<path fill-rule="evenodd" clip-rule="evenodd" d="M12.8213 11.1139C12.6204 11.1641 12.4168 11.042 12.3666 10.841L11.6166 7.84104C11.5663 7.64012 11.6885 7.43652 11.8894 7.38629C12.0904 7.33605 12.294 7.45821 12.3442 7.65914L13.0942 10.6591C13.1444 10.8601 13.0223 11.0637 12.8213 11.1139Z" fill="#F1F3F5"/>
</svg>
