<svg width="118" height="97" viewBox="0 0 118 97" fill="none" xmlns="http://www.w3.org/2000/svg">
<rect x="12" y="80" width="94" height="7" rx="3.5" fill="#ADBACD"/>
<path fill-rule="evenodd" clip-rule="evenodd" d="M54.052 31C54.052 27.134 57.186 24 61.052 24H80.2099C84.0759 24 87.2099 27.134 87.2099 31V50.5263H93.4731C97.3391 50.5263 100.473 53.6603 100.473 57.5263V76.6842C100.473 80.5502 97.3391 83.6842 93.4731 83.6842H79.8415C75.9755 83.6842 72.8415 80.5502 72.8415 76.6842V70.4211H67.3152V76.6842C67.3152 80.5502 64.1812 83.6842 60.3152 83.6842H46.6836C42.8176 83.6842 39.6836 80.5502 39.6836 76.6842V44.2632C39.6836 40.3972 42.8176 37.2632 46.6836 37.2632H54.052V31Z" fill="#648DF7"/>
<rect x="60.6846" y="30.6328" width="6.63158" height="6.63158" fill="#3D65CE"/>
<rect x="73.9482" y="30.6328" width="6.63158" height="6.63158" fill="#3D65CE"/>
<rect x="60.6846" y="43.8955" width="6.63158" height="6.63158" fill="#3D65CE"/>
<rect x="47.4219" y="43.8955" width="6.63158" height="6.63158" fill="#3D65CE"/>
<rect x="47.4219" y="57.1592" width="6.63158" height="6.63158" fill="#3D65CE"/>
<rect x="47.4219" y="70.4219" width="6.63158" height="6.63158" fill="#3D65CE"/>
<rect x="73.9482" y="43.8955" width="6.63158" height="6.63158" fill="#3D65CE"/>
<rect x="60.6846" y="57.1592" width="6.63158" height="6.63158" fill="#3D65CE"/>
<rect x="73.9482" y="57.1592" width="6.63158" height="6.63158" fill="#3D65CE"/>
<rect x="87.2109" y="57.1592" width="6.63158" height="6.63158" fill="#3D65CE"/>
<rect x="87.2109" y="70.4219" width="6.63158" height="6.63158" fill="#3D65CE"/>
<circle cx="16" cy="33" r="8" fill="#F1DA63"/>
<path d="M16 19L18.5981 23.5H13.4019L16 19Z" fill="#F1DA63"/>
<path d="M16 47L13.4019 42.5L18.5981 42.5L16 47Z" fill="#F1DA63"/>
<path d="M25.3631 43.3635L20.344 42.0186L24.0182 38.3444L25.3631 43.3635Z" fill="#F1DA63"/>
<path d="M6.12132 23.1209L11.1404 24.4657L7.46618 28.14L6.12132 23.1209Z" fill="#F1DA63"/>
<path d="M26.3635 23.1213L25.0186 28.1404L21.3444 24.4662L26.3635 23.1213Z" fill="#F1DA63"/>
<path d="M6.12087 43.364L7.46573 38.3449L11.14 42.0192L6.12087 43.364Z" fill="#F1DA63"/>
<path d="M30 33L25.5 35.5981L25.5 30.4019L30 33Z" fill="#F1DA63"/>
<path d="M2 33L6.5 30.4019L6.5 35.5981L2 33Z" fill="#F1DA63"/>
<path fill-rule="evenodd" clip-rule="evenodd" d="M14.3616 40.2695C14.7042 36.1978 18.1175 33 22.2778 33C26.4219 33 29.8249 36.1731 30.1898 40.2222H30.9444C33.7365 40.2222 36 42.4857 36 45.2778C36 48.0699 33.7365 50.3333 30.9444 50.3333H15.0556C12.2635 50.3333 10 48.0699 10 45.2778C10 42.7211 11.8978 40.6077 14.3616 40.2695Z" fill="white"/>
</svg>
