<svg width="18" height="18" viewBox="0 0 18 18" fill="none" xmlns="http://www.w3.org/2000/svg">
    <g clip-path="url(#n0fsl9nwla)">
        <path d="M9.51 4.41c.525-.18.915-.675.975-1.23a1.464 1.464 0 0 0-.21-.952L9.315.563a.38.38 0 0 0-.652 0l-.96 1.665A1.56 1.56 0 0 0 7.5 3c0 .99.975 1.763 2.01 1.41zm2.888 7.53-.75-.75-.81.803c-.975.975-2.685.982-3.668 0l-.803-.803-.817.803a2.576 2.576 0 0 1-1.83.757c-.548 0-1.05-.172-1.47-.457V15c0 .825.675 1.5 1.5 1.5h10.5c.825 0 1.5-.675 1.5-1.5v-2.707a2.602 2.602 0 0 1-2.055.39c-.495-.105-.938-.383-1.297-.743zM13.5 6.75H9.75V6A.752.752 0 0 0 9 5.25a.752.752 0 0 0-.75.75v.75H4.5A2.247 2.247 0 0 0 2.25 9v1.095c0 .638.375 1.253.982 1.455.548.18 1.14.045 1.523-.345L6.36 9.608l1.597 1.597c.57.57 1.508.57 2.078 0l1.605-1.597 1.598 1.597c.322.323.772.473 1.237.413.742-.098 1.268-.795 1.268-1.545V9.008A2.238 2.238 0 0 0 13.5 6.75z" fill="#fff"/>
    </g>
    <defs>
        <clipPath id="n0fsl9nwla">
            <path fill="#fff" d="M0 0h18v18H0z"/>
        </clipPath>
    </defs>
</svg>
