<svg width="28" height="28" viewBox="0 0 28 28" fill="none" xmlns="http://www.w3.org/2000/svg">
    <circle cx="14" cy="14" r="13" fill="#fff"/>
    <path d="m21.058 14.685-6.75-6.75A1.49 1.49 0 0 0 13.25 7.5H8c-.825 0-1.5.675-1.5 1.5v5.25c0 .412.165.787.442 1.065l6.75 6.75c.27.27.646.435 1.058.435.412 0 .787-.165 1.057-.442l5.25-5.25c.278-.27.443-.645.443-1.058 0-.412-.172-.795-.442-1.065zM9.125 11.25A1.123 1.123 0 0 1 8 10.125C8 9.502 8.502 9 9.125 9s1.125.502 1.125 1.125-.502 1.125-1.125 1.125z" fill="#7384A0"/>
</svg>
