<svg width="30" height="30" viewBox="0 0 30 30" fill="none" xmlns="http://www.w3.org/2000/svg">
    <g clip-path="url(#np66mc40fa)">
        <path d="M7.5 12.5A2.507 2.507 0 0 0 5 15c0 1.375 1.125 2.5 2.5 2.5S10 16.375 10 15s-1.125-2.5-2.5-2.5zm15 0A2.507 2.507 0 0 0 20 15c0 1.375 1.125 2.5 2.5 2.5S25 16.375 25 15s-1.125-2.5-2.5-2.5zm-7.5 0a2.507 2.507 0 0 0-2.5 2.5c0 1.375 1.125 2.5 2.5 2.5s2.5-1.125 2.5-2.5-1.125-2.5-2.5-2.5z" fill="#F1F3F5"/>
    </g>
    <defs>
        <clipPath id="np66mc40fa">
            <path fill="#fff" d="M0 0h30v30H0z"/>
        </clipPath>
    </defs>
</svg>
