<svg width="200" height="200" viewBox="0 0 200 200" fill="none" xmlns="http://www.w3.org/2000/svg">
<circle cx="100" cy="100" r="97.5" stroke="#6EF0A6" stroke-width="5"/>
<g clip-path="url(#clip0_2726_30757)">
<path d="M171.798 99.9084C176.88 99.9084 181 95.78 181 90.6874C181 85.5947 176.88 81.4663 171.798 81.4663C166.716 81.4663 162.597 85.5947 162.597 90.6874C162.597 95.78 166.716 99.9084 171.798 99.9084Z" fill="#5A7CBE"/>
<path d="M154.891 105.951C157.419 105.951 159.469 103.897 159.469 101.363C159.469 98.8289 157.419 96.7749 154.891 96.7749C152.362 96.7749 150.312 98.8289 150.312 101.363C150.312 103.897 152.362 105.951 154.891 105.951Z" fill="#5A7CBE"/>
<path d="M157.202 78.1962C158.479 78.1962 159.514 77.159 159.514 75.8796C159.514 74.6002 158.479 73.563 157.202 73.563C155.926 73.563 154.891 74.6002 154.891 75.8796C154.891 77.159 155.926 78.1962 157.202 78.1962Z" fill="#5A7CBE"/>
<path d="M34.7233 80.9675C39.8053 80.9675 43.925 76.8391 43.925 71.7465C43.925 66.6538 39.8053 62.5254 34.7233 62.5254C29.6413 62.5254 25.5215 66.6538 25.5215 71.7465C25.5215 76.8391 29.6413 80.9675 34.7233 80.9675Z" fill="#5A7CBE"/>
<path d="M51.631 65.659C54.1594 65.659 56.2092 63.605 56.2092 61.0712C56.2092 58.5374 54.1594 56.4834 51.631 56.4834C49.1025 56.4834 47.0527 58.5374 47.0527 61.0712C47.0527 63.605 49.1025 65.659 51.631 65.659Z" fill="#5A7CBE"/>
<path d="M49.3196 88.871C50.5963 88.871 51.6314 87.8339 51.6314 86.5544C51.6314 85.275 50.5963 84.2378 49.3196 84.2378C48.0428 84.2378 47.0078 85.275 47.0078 86.5544C47.0078 87.8339 48.0428 88.871 49.3196 88.871Z" fill="#5A7CBE"/>
<path d="M91.6115 31.9994L139.751 35.4517C143.015 35.6788 145.462 38.5405 145.236 41.811L138.935 129.616C138.708 132.886 135.853 135.339 132.589 135.112L84.4495 131.66C81.1859 131.432 78.7381 128.571 78.9647 125.3L85.2655 37.5412C85.4921 34.2252 88.3478 31.7723 91.6115 31.9994Z" fill="#8989B1"/>
<path d="M90.6594 31.9994L138.799 35.4517C142.062 35.6788 144.51 38.5405 144.283 41.811L137.983 129.57C137.756 132.841 134.9 135.294 131.637 135.066L83.4974 131.614C80.2337 131.387 77.786 128.525 78.0126 125.255L84.3133 37.4957C84.5853 34.2252 87.3957 31.7723 90.6594 31.9994Z" fill="#9D9ACB"/>
<path d="M110.332 47.8524L91.2937 46.4897C90.2059 46.3989 89.3446 45.445 89.4353 44.3548C89.5259 43.2646 90.4778 42.4016 91.5657 42.4924L110.604 43.8551C111.692 43.946 112.553 44.8999 112.462 45.9901C112.417 47.1257 111.465 47.9433 110.332 47.8524Z" fill="#8989B1"/>
<path d="M65.2302 68.5666L112.78 64.7056C115.999 64.4331 118.809 66.8405 119.081 70.0656L126.107 156.78C126.379 160.005 123.976 162.821 120.758 163.094L73.208 167C69.9897 167.273 67.1793 164.865 66.9073 161.64L59.8813 74.8806C59.6094 71.6555 62.0118 68.8392 65.2302 68.5666Z" fill="#3ACE7A"/>
<path d="M64.3689 68.5666L111.919 64.7056C115.137 64.4331 117.948 66.8405 118.22 70.0656L125.246 156.78C125.518 160.005 123.115 162.821 119.897 163.094L72.3468 166.955C69.1284 167.227 66.318 164.82 66.0461 161.595L58.9748 74.8806C58.7481 71.6555 61.1506 68.8392 64.3689 68.5666Z" fill="#6EF0A6"/>
<path d="M86.489 80.4222L67.4508 81.9666C66.3629 82.0574 65.3657 81.2398 65.3204 80.1496C65.2297 79.0594 66.0456 78.0601 67.1335 78.0147L86.1717 76.4703C87.2596 76.3794 88.2568 77.1971 88.3021 78.2872C88.3928 79.332 87.5769 80.3313 86.489 80.4222Z" fill="#3ACE7A"/>
</g>
<defs>
<clipPath id="clip0_2726_30757">
<rect width="164" height="135" fill="white" transform="translate(17 32)"/>
</clipPath>
</defs>
</svg>
