<svg width="16" height="16" viewBox="0 0 16 16" fill="none" xmlns="http://www.w3.org/2000/svg">
    <g clip-path="url(#ks8ndr7fua)">
        <path d="M12 12.667H4A.669.669 0 0 1 3.333 12V4c0-.367.3-.667.667-.667h8c.367 0 .667.3.667.667v8c0 .367-.3.667-.667.667zM12.667 2H3.333C2.6 2 2 2.6 2 3.333v9.334C2 13.4 2.6 14 3.333 14h9.334C13.4 14 14 13.4 14 12.667V3.333C14 2.6 13.4 2 12.667 2z" fill="#666C76"/>
    </g>
    <defs>
        <clipPath id="ks8ndr7fua">
            <path fill="#fff" d="M0 0h16v16H0z"/>
        </clipPath>
    </defs>
</svg>
