<svg width="200" height="200" viewBox="0 0 200 200" fill="none" xmlns="http://www.w3.org/2000/svg">
<path fill-rule="evenodd" clip-rule="evenodd" d="M100 195C152.467 195 195 152.467 195 100C195 47.5329 152.467 5 100 5C47.5329 5 5 47.5329 5 100C5 152.467 47.5329 195 100 195ZM100 200C155.228 200 200 155.228 200 100C200 44.7715 155.228 0 100 0C44.7715 0 0 44.7715 0 100C0 155.228 44.7715 200 100 200Z" fill="#F06E70"/>
<g clip-path="url(#clip0_2726_30744)">
<path d="M160.381 44.2584C162.38 44.2584 164 42.6336 164 40.6292C164 38.6249 162.38 37 160.381 37C158.383 37 156.763 38.6249 156.763 40.6292C156.763 42.6336 158.383 44.2584 160.381 44.2584Z" fill="#B1E4FA"/>
<path d="M158.551 55.0608C160.926 55.0608 162.851 53.13 162.851 50.7484C162.851 48.3667 160.926 46.436 158.551 46.436C156.176 46.436 154.251 48.3667 154.251 50.7484C154.251 53.13 156.176 55.0608 158.551 55.0608Z" fill="#B1E4FA"/>
<path d="M151.526 46.4356C152.725 46.4356 153.697 45.4607 153.697 44.2581C153.697 43.0555 152.725 42.0806 151.526 42.0806C150.327 42.0806 149.354 43.0555 149.354 44.2581C149.354 45.4607 150.327 46.4356 151.526 46.4356Z" fill="#B1E4FA"/>
<path d="M31.5979 96.0071C34.1372 96.0071 36.1958 93.9426 36.1958 91.3959C36.1958 88.8492 34.1372 86.7847 31.5979 86.7847C29.0585 86.7847 27 88.8492 27 91.3959C27 93.9426 29.0585 96.0071 31.5979 96.0071Z" fill="#B1E4FA"/>
<path d="M34.6628 81.5753C37.6959 81.5753 40.1547 79.1093 40.1547 76.0674C40.1547 73.0255 37.6959 70.5596 34.6628 70.5596C31.6297 70.5596 29.1709 73.0255 29.1709 76.0674C29.1709 79.1093 31.6297 81.5753 34.6628 81.5753Z" fill="#B1E4FA"/>
<path d="M42.8799 89.5169C44.3847 89.5169 45.6046 88.2935 45.6046 86.7843C45.6046 85.2752 44.3847 84.0518 42.8799 84.0518C41.3752 84.0518 40.1553 85.2752 40.1553 86.7843C40.1553 88.2935 41.3752 89.5169 42.8799 89.5169Z" fill="#B1E4FA"/>
<path d="M101.418 44.6856L146.63 47.9305C149.696 48.144 151.995 50.8339 151.782 53.908L145.864 136.398C145.651 139.472 142.969 141.778 139.904 141.564L94.6914 138.319C91.6261 138.106 89.3272 135.416 89.54 132.342L95.4577 49.8519C95.6706 46.7777 98.3527 44.4721 101.418 44.6856Z" fill="#9D9ACB"/>
<path d="M100.524 44.6856L145.736 47.9305C148.802 48.144 151.101 50.8339 150.888 53.908L144.97 136.398C144.757 139.472 142.075 141.778 139.01 141.564L93.8398 138.319C90.7746 138.106 88.4756 135.416 88.6885 132.342L94.6061 49.8519C94.819 46.7777 97.4585 44.4721 100.524 44.6856Z" fill="#8989B1"/>
<path d="M119 59.5869L101.12 58.306C100.098 58.2206 99.2892 57.3239 99.3743 56.2992C99.4595 55.2745 100.354 54.4633 101.375 54.5487L119.256 55.8296C120.278 55.9149 121.087 56.8116 121.001 57.8363C120.959 58.861 120.065 59.6296 119 59.5869Z" fill="#8989B1"/>
<path d="M54.5873 77.4761L99.2464 73.8469C102.269 73.5907 104.909 75.8537 105.164 78.8851L111.805 160.393C112.061 163.424 109.804 166.072 106.782 166.328L62.1227 169.957C59.1 170.213 56.4605 167.95 56.2051 164.919L49.5637 83.411C49.3082 80.3795 51.5646 77.6896 54.5873 77.4761Z" fill="#E94043"/>
<path d="M53.7783 77.4761L98.4374 73.8469C101.46 73.5907 104.1 75.8537 104.355 78.8851L110.996 160.393C111.252 163.424 108.996 166.072 105.973 166.328L61.3138 169.957C58.2911 170.213 55.6515 167.95 55.3961 164.919L48.7121 83.411C48.4993 80.3795 50.7557 77.6896 53.7783 77.4761Z" fill="#F06E70"/>
<path d="M74.5541 88.5775L56.6734 90.0292C55.6517 90.1146 54.7151 89.3461 54.6725 88.3214C54.5873 87.2966 55.3536 86.3573 56.3754 86.3146L74.2561 84.8629C75.2778 84.7775 76.2144 85.5461 76.257 86.5708C76.3421 87.5955 75.5758 88.4921 74.5541 88.5775Z" fill="#E94043"/>
</g>
<defs>
<clipPath id="clip0_2726_30744">
<rect width="137" height="133" fill="white" transform="translate(27 37)"/>
</clipPath>
</defs>
</svg>
