<svg width="32" height="32" viewBox="0 0 32 32" fill="none" xmlns="http://www.w3.org/2000/svg">
    <path d="m23.18 8.29 6.055 3.484a.858.858 0 0 1 .314 1.171l-6.36 11.053a.855.855 0 0 1-1.17.316l-6.055-3.485a.86.86 0 0 1-.314-1.171l6.361-11.052a.852.852 0 0 1 1.17-.317z" fill="#F1F3F5"/>
    <path fill-rule="evenodd" clip-rule="evenodd" d="m29.138 11.704-6.059-3.49a.864.864 0 0 0-1.168.311l-6.354 11.056a.855.855 0 0 0 .314 1.17l6.05 3.493a.86.86 0 0 0 1.17-.319l6.362-11.051a.858.858 0 0 0-.315-1.17zm-6.805-1.625 2.432 1.4a.291.291 0 0 0 .418-.33.288.288 0 0 0-.136-.175l-2.423-1.399a.292.292 0 0 0-.29.504z" fill="#9D9ACB"/>
    <path d="M12.34 7.01 19.327 7a.857.857 0 0 1 .858.858l.018 12.75a.857.857 0 0 1-.854.86l-6.987.01a.86.86 0 0 1-.851-.858l-.024-12.752a.85.85 0 0 1 .855-.859z" fill="#F1F3F5"/>
    <path fill-rule="evenodd" clip-rule="evenodd" d="m19.195 7-6.987.008a.864.864 0 0 0-.86.86l.025 12.744a.853.853 0 0 0 .857.856h6.985a.857.857 0 0 0 .855-.86l-.017-12.752A.857.857 0 0 0 19.195 7zm-6.694 1.997 2.797-.003a.29.29 0 1 0 0-.578h-2.797a.291.291 0 0 0 0 .581z" fill="#FDD100"/>
    <path d="M2.858 11.724 8.91 8.22a.858.858 0 0 1 1.171.314l6.392 11.034a.855.855 0 0 1-.31 1.171l-6.047 3.502a.86.86 0 0 1-1.171-.314l-6.397-11.03a.851.851 0 0 1 .31-1.172z" fill="#F1F3F5"/>
    <path fill-rule="evenodd" clip-rule="evenodd" d="m8.798 8.287-6.05 3.493a.864.864 0 0 0-.316 1.176l6.4 11.029a.854.854 0 0 0 1.168.314l6.05-3.493a.858.858 0 0 0 .31-1.172L9.968 8.599a.858.858 0 0 0-1.17-.312zM3.996 13.35l2.422-1.398a.292.292 0 0 0-.29-.504l-2.423 1.399a.292.292 0 0 0 .29.503z" fill="#F67066"/>
</svg>
