<svg width="32" height="32" viewBox="0 0 32 32" fill="none" xmlns="http://www.w3.org/2000/svg">
<circle cx="16" cy="16" r="16" fill="#35383D"/>
<path d="M9.33301 12.0001C9.33301 11.2637 9.92996 10.6667 10.6663 10.6667H13.9997C14.1765 10.6667 14.3461 10.737 14.4711 10.862L15.6091 12.0001H21.333C22.0694 12.0001 22.6663 12.597 22.6663 13.3334V20.0001C22.6663 20.7365 22.0694 21.3334 21.333 21.3334H10.6663C9.92996 21.3334 9.33301 20.7365 9.33301 20.0001V12.0001ZM13.7235 12.0001L10.6663 12.0001V20.0001H21.333V13.3334H15.333C15.1562 13.3334 14.9866 13.2632 14.8616 13.1382L13.7235 12.0001Z" fill="#83888F"/>
</svg>
