<svg width="28" height="28" viewBox="0 0 28 28" fill="none" xmlns="http://www.w3.org/2000/svg">
    <circle cx="14" cy="14" r="13" fill="#fff"/>
    <path d="M13.991 5.667c-4.6 0-8.325 3.733-8.325 8.333s3.725 8.333 8.325 8.333c4.608 0 8.342-3.733 8.342-8.333s-3.734-8.333-8.342-8.333zm-2.908 5c.691 0 1.25.558 1.25 1.25 0 .691-.559 1.25-1.25 1.25-.692 0-1.25-.559-1.25-1.25 0-.692.558-1.25 1.25-1.25zm6.841 5.6C17.166 17.892 15.7 19 14 19c-1.7 0-3.166-1.108-3.925-2.733a.418.418 0 0 1 .375-.6h7.1c.309 0 .509.325.375.6zm-1.008-3.1c-.692 0-1.25-.559-1.25-1.25 0-.692.558-1.25 1.25-1.25s1.25.558 1.25 1.25c0 .691-.558 1.25-1.25 1.25z" fill="#119A79"/>
</svg>
