<svg width="30" height="30" viewBox="0 0 30 30" fill="none" xmlns="http://www.w3.org/2000/svg">
    <path d="M5 16.25c.688 0 1.25-.563 1.25-1.25 0-.688-.563-1.25-1.25-1.25-.688 0-1.25.563-1.25 1.25 0 .688.563 1.25 1.25 1.25zm0 5c.688 0 1.25-.563 1.25-1.25 0-.688-.563-1.25-1.25-1.25-.688 0-1.25.563-1.25 1.25 0 .688.563 1.25 1.25 1.25zm0-10c.688 0 1.25-.563 1.25-1.25 0-.688-.563-1.25-1.25-1.25-.688 0-1.25.563-1.25 1.25 0 .688.563 1.25 1.25 1.25zm5 5h15c.688 0 1.25-.563 1.25-1.25 0-.688-.563-1.25-1.25-1.25H10c-.688 0-1.25.563-1.25 1.25 0 .688.563 1.25 1.25 1.25zm0 5h15c.688 0 1.25-.563 1.25-1.25 0-.688-.563-1.25-1.25-1.25H10c-.688 0-1.25.563-1.25 1.25 0 .688.563 1.25 1.25 1.25zM8.75 10c0 .688.563 1.25 1.25 1.25h15c.688 0 1.25-.563 1.25-1.25 0-.688-.563-1.25-1.25-1.25H10c-.688 0-1.25.563-1.25 1.25zM5 16.25c.688 0 1.25-.563 1.25-1.25 0-.688-.563-1.25-1.25-1.25-.688 0-1.25.563-1.25 1.25 0 .688.563 1.25 1.25 1.25zm0 5c.688 0 1.25-.563 1.25-1.25 0-.688-.563-1.25-1.25-1.25-.688 0-1.25.563-1.25 1.25 0 .688.563 1.25 1.25 1.25zm0-10c.688 0 1.25-.563 1.25-1.25 0-.688-.563-1.25-1.25-1.25-.688 0-1.25.563-1.25 1.25 0 .688.563 1.25 1.25 1.25zm5 5h15c.688 0 1.25-.563 1.25-1.25 0-.688-.563-1.25-1.25-1.25H10c-.688 0-1.25.563-1.25 1.25 0 .688.563 1.25 1.25 1.25zm0 5h15c.688 0 1.25-.563 1.25-1.25 0-.688-.563-1.25-1.25-1.25H10c-.688 0-1.25.563-1.25 1.25 0 .688.563 1.25 1.25 1.25zM8.75 10c0 .688.563 1.25 1.25 1.25h15c.688 0 1.25-.563 1.25-1.25 0-.688-.563-1.25-1.25-1.25H10c-.688 0-1.25.563-1.25 1.25z" fill="#2B2D31"/>
</svg>
