<svg width="24" height="24" viewBox="0 0 24 24" fill="none" xmlns="http://www.w3.org/2000/svg">
    <path d="M2.222 13.2c.672 0 1.222-.54 1.222-1.2 0-.66-.55-1.2-1.222-1.2C1.55 10.8 1 11.34 1 12c0 .66.55 1.2 1.222 1.2zm0 4.8c.672 0 1.222-.54 1.222-1.2 0-.66-.55-1.2-1.222-1.2C1.55 15.6 1 16.14 1 16.8c0 .66.55 1.2 1.222 1.2zm0-9.6c.672 0 1.222-.54 1.222-1.2 0-.66-.55-1.2-1.222-1.2C1.55 6 1 6.54 1 7.2c0 .66.55 1.2 1.222 1.2zm4.89 4.8h14.666C22.45 13.2 23 12.66 23 12c0-.66-.55-1.2-1.222-1.2H7.11c-.672 0-1.222.54-1.222 1.2 0 .66.55 1.2 1.222 1.2zm0 4.8h14.666C22.45 18 23 17.46 23 16.8c0-.66-.55-1.2-1.222-1.2H7.11c-.672 0-1.222.54-1.222 1.2 0 .66.55 1.2 1.222 1.2zM5.888 7.2c0 .66.55 1.2 1.222 1.2h14.667C22.45 8.4 23 7.86 23 7.2c0-.66-.55-1.2-1.222-1.2H7.11C6.44 6 5.89 6.54 5.89 7.2zm-3.667 6c.672 0 1.222-.54 1.222-1.2 0-.66-.55-1.2-1.222-1.2C1.55 10.8 1 11.34 1 12c0 .66.55 1.2 1.222 1.2zm0 4.8c.672 0 1.222-.54 1.222-1.2 0-.66-.55-1.2-1.222-1.2C1.55 15.6 1 16.14 1 16.8c0 .66.55 1.2 1.222 1.2zm0-9.6c.672 0 1.222-.54 1.222-1.2 0-.66-.55-1.2-1.222-1.2C1.55 6 1 6.54 1 7.2c0 .66.55 1.2 1.222 1.2zm4.89 4.8h14.666C22.45 13.2 23 12.66 23 12c0-.66-.55-1.2-1.222-1.2H7.11c-.672 0-1.222.54-1.222 1.2 0 .66.55 1.2 1.222 1.2zm0 4.8h14.666C22.45 18 23 17.46 23 16.8c0-.66-.55-1.2-1.222-1.2H7.11c-.672 0-1.222.54-1.222 1.2 0 .66.55 1.2 1.222 1.2zM5.888 7.2c0 .66.55 1.2 1.222 1.2h14.667C22.45 8.4 23 7.86 23 7.2c0-.66-.55-1.2-1.222-1.2H7.11C6.44 6 5.89 6.54 5.89 7.2z" fill="#F1F3F5"/>
</svg>
