<svg width="200" height="200" viewBox="0 0 200 200" fill="none" xmlns="http://www.w3.org/2000/svg">
<circle cx="100" cy="100" r="97.5" stroke="#FDD100" stroke-width="5"/>
<g clip-path="url(#clip0_2726_30729)">
<path d="M119.431 155.855C124.202 155.855 128.07 152.009 128.07 147.264C128.07 142.52 124.202 138.674 119.431 138.674C114.659 138.674 110.791 142.52 110.791 147.264C110.791 152.009 114.659 155.855 119.431 155.855Z" fill="#3F8BEE"/>
<path d="M102.79 164.403C105.164 164.403 107.088 162.489 107.088 160.129C107.088 157.768 105.164 155.854 102.79 155.854C100.416 155.854 98.4912 157.768 98.4912 160.129C98.4912 162.489 100.416 164.403 102.79 164.403Z" fill="#3F8BEE"/>
<path d="M103.853 142.99C105.052 142.99 106.024 142.024 106.024 140.832C106.024 139.64 105.052 138.674 103.853 138.674C102.654 138.674 101.683 139.64 101.683 140.832C101.683 142.024 102.654 142.99 103.853 142.99Z" fill="#3F8BEE"/>
<path d="M92.3623 51.6263C97.1338 51.6263 101.002 47.7802 101.002 43.0358C101.002 38.2914 97.1338 34.4453 92.3623 34.4453C87.5907 34.4453 83.7227 38.2914 83.7227 43.0358C83.7227 47.7802 87.5907 51.6263 92.3623 51.6263Z" fill="#3F8BEE"/>
<path d="M76.1042 55.9007C78.4782 55.9007 80.4027 53.9871 80.4027 51.6266C80.4027 49.2661 78.4782 47.3525 76.1042 47.3525C73.7302 47.3525 71.8057 49.2661 71.8057 51.6266C71.8057 53.9871 73.7302 55.9007 76.1042 55.9007Z" fill="#3F8BEE"/>
<path d="M90.192 59.582C91.3908 59.582 92.3626 58.6158 92.3626 57.4238C92.3626 56.2319 91.3908 55.2656 90.192 55.2656C88.9933 55.2656 88.0215 56.2319 88.0215 57.4238C88.0215 58.6158 88.9933 59.582 90.192 59.582Z" fill="#3F8BEE"/>
<path d="M120.92 35.6728L165.309 44.7288C168.331 45.3636 170.246 48.2835 169.65 51.2457L153.095 131.565C152.456 134.569 149.52 136.474 146.54 135.881L102.151 126.825C99.129 126.19 97.2138 123.27 97.8097 120.308L114.365 39.9892C115.004 36.9846 117.94 35.038 120.92 35.6728Z" fill="#FFB600"/>
<path d="M120.069 35.5459L164.458 44.6019C167.48 45.2366 169.395 48.1566 168.799 51.1188L152.244 131.438C151.605 134.442 148.669 136.347 145.689 135.754L101.257 126.698C98.2355 126.063 96.3203 123.144 96.9161 120.181L113.472 39.8623C114.11 36.8577 117.047 34.9534 120.069 35.5459Z" fill="#FDD100"/>
<path d="M136.454 52.5997L118.92 49.0027C117.898 48.7911 117.26 47.8178 117.473 46.8022C117.685 45.7866 118.664 45.1518 119.686 45.3634L137.22 48.9604C138.242 49.172 138.88 50.1453 138.667 51.1609C138.454 52.1342 137.476 52.769 136.454 52.5997Z" fill="#FFB600"/>
<path d="M54.0582 64.7027L97.8947 73.928C100.874 74.5628 102.747 77.4404 102.151 80.4026L85.2545 159.706C84.6161 162.668 81.722 164.53 78.7429 163.938L34.9064 154.713C31.9272 154.078 30.0546 151.2 30.6504 148.238L47.5466 68.8922C48.185 65.9723 51.0791 64.068 54.0582 64.7027Z" fill="#FFB600"/>
<path d="M53.292 64.4487L97.1285 73.674C100.108 74.3088 101.98 77.1864 101.384 80.1486L84.5308 159.452C83.8924 162.414 80.9984 164.276 78.0192 163.684L34.1828 154.459C31.2036 153.824 29.331 150.946 29.9268 147.984L46.7379 68.6805C47.3763 65.7183 50.3129 63.814 53.292 64.4487Z" fill="#FDD100"/>
<path d="M70.0176 80.9104L52.483 77.2288C51.4616 77.0172 50.8232 76.0439 51.036 75.0283C51.2488 74.0126 52.2277 73.3779 53.2491 73.5895L70.7837 77.2711C71.8051 77.4827 72.4435 78.456 72.2307 79.4716C72.0179 80.4873 71.039 81.122 70.0176 80.9104Z" fill="#FFB600"/>
</g>
<defs>
<clipPath id="clip0_2726_30729">
<rect width="155.556" height="130" fill="white" transform="translate(14.2227 34.4453)"/>
</clipPath>
</defs>
</svg>
