<svg width="21" height="21" viewBox="0 0 21 21" fill="none" xmlns="http://www.w3.org/2000/svg">
<circle cx="10.5" cy="10.5" r="10.5" fill="#EF7373"/>
<path d="M8.31228 6.61133C6.83569 6.61133 5.63867 7.80835 5.63867 9.28494C5.63867 11.9585 8.79839 14.3891 10.4998 14.9545C12.2012 14.3891 15.3609 11.9585 15.3609 9.28494C15.3609 7.80835 14.1639 6.61133 12.6873 6.61133C11.783 6.61133 10.9836 7.06023 10.4998 7.74732C10.0159 7.06023 9.21652 6.61133 8.31228 6.61133Z" fill="white"/>
<path fill-rule="evenodd" clip-rule="evenodd" d="M5.27344 9.28526C5.27344 7.60732 6.63368 6.24707 8.31163 6.24707C9.17094 6.24707 9.94686 6.60406 10.4991 7.17686C11.0514 6.60406 11.8273 6.24707 12.6866 6.24707C14.3646 6.24707 15.7248 7.60732 15.7248 9.28526C15.7248 10.7621 14.858 12.1258 13.8268 13.1672C12.792 14.2121 11.5292 14.9967 10.6141 15.3008C10.5395 15.3256 10.4588 15.3256 10.3842 15.3008C9.46902 14.9967 8.20625 14.2121 7.17149 13.1672C6.14028 12.1258 5.27344 10.7621 5.27344 9.28526ZM8.31163 6.97624C7.03639 6.97624 6.0026 8.01003 6.0026 9.28526C6.0026 10.482 6.71562 11.6705 7.68962 12.6541C8.61381 13.5874 9.71697 14.2789 10.4991 14.5684C11.2813 14.2789 12.3845 13.5874 13.3086 12.6541C14.2826 11.6705 14.9957 10.482 14.9957 9.28526C14.9957 8.01003 13.9619 6.97624 12.6866 6.97624C11.906 6.97624 11.2157 7.36328 10.7972 7.95756C10.7289 8.05454 10.6177 8.11223 10.4991 8.11223C10.3805 8.11223 10.2693 8.05454 10.201 7.95756C9.78255 7.36328 9.09227 6.97624 8.31163 6.97624Z" fill="white"/>
</svg>
