<svg width="24" height="24" viewBox="0 0 24 24" fill="none" xmlns="http://www.w3.org/2000/svg">
<path d="M21.8296 20.4196L15.6596 14.2496L19.2496 10.6596C19.6374 10.2695 19.6374 9.63959 19.2496 9.24955L17.4096 7.40955C16.8361 6.85391 15.9869 6.69273 15.2496 6.99955L11.3296 2.99955C10.7667 2.43469 10.0021 2.11719 9.20463 2.11719C8.40718 2.11719 7.64254 2.43469 7.07963 2.99955L3.07963 6.99955C2.51477 7.56246 2.19727 8.3271 2.19727 9.12455C2.19727 9.92201 2.51477 10.6866 3.07963 11.2496L6.99963 15.2496C6.70047 15.9927 6.87361 16.8427 7.43963 17.4096L9.27963 19.2496C9.66967 19.6373 10.2996 19.6373 10.6896 19.2496L14.2796 15.6596L20.4496 21.8296C20.6367 22.0204 20.8924 22.1284 21.1596 22.1296C21.5641 22.1279 21.9277 21.8827 22.0809 21.5084C22.2341 21.1341 22.1468 20.7044 21.8596 20.4196H21.8296Z" fill="#F1F3F5"/>
</svg>
