<svg width="24" height="24" viewBox="0 0 24 24" fill="none" xmlns="http://www.w3.org/2000/svg">
<g clip-path="url(#clip0_2726_32007)">
<path d="M18.3 5H4.7C3.765 5 3.0085 5.7875 3.0085 6.75L3 17.25C3 18.2125 3.765 19 4.7 19H18.3C19.235 19 20 18.2125 20 17.25V6.75C20 5.7875 19.235 5 18.3 5ZM17.45 17.25H5.55C5.0825 17.25 4.7 16.8562 4.7 16.375V8.5L10.599 12.2975C11.1515 12.6562 11.8485 12.6562 12.401 12.2975L18.3 8.5V16.375C18.3 16.8562 17.9175 17.25 17.45 17.25ZM11.5 11.125L4.7 6.75H18.3L11.5 11.125Z" fill="white"/>
</g>
<defs>
<clipPath id="clip0_2726_32007">
<rect width="24" height="24" fill="white"/>
</clipPath>
</defs>
</svg>
