<svg width="200" height="200" viewBox="0 0 200 200" fill="none" xmlns="http://www.w3.org/2000/svg">
<circle cx="100" cy="100" r="97.5" stroke="#F88D2B" stroke-width="5"/>
<g clip-path="url(#clip0_2726_30772)">
<path d="M114.963 58.5747L163.473 62.0495C166.762 62.2781 169.228 65.1584 169 68.4503L162.651 156.782C162.422 160.074 159.545 162.542 156.256 162.314L107.746 158.839C104.457 158.61 101.99 155.73 102.219 152.438L108.568 64.1069C108.796 60.815 111.674 58.3461 114.963 58.5747Z" fill="#8989B1"/>
<path d="M114.004 58.5747L162.514 62.0495C165.803 62.2781 168.269 65.1584 168.041 68.4503L161.692 156.782C161.463 160.074 158.586 162.542 155.297 162.314L106.787 158.839C103.498 158.61 101.031 155.73 101.26 152.438L107.609 64.1069C107.883 60.815 110.715 58.3461 114.004 58.5747Z" fill="#9D9ACB"/>
<path d="M133.828 74.5315L114.643 73.1599C113.547 73.0684 112.679 72.1083 112.77 71.011C112.862 69.9137 113.821 69.0451 114.917 69.1365L134.102 70.5081C135.198 70.5995 136.066 71.5597 135.975 72.657C135.929 73.7542 134.97 74.5772 133.828 74.5315Z" fill="#8989B1"/>
<path d="M36.0772 63.924L83.9933 60.0378C87.2365 59.7635 90.0685 62.1866 90.3426 65.4328L97.4227 152.713C97.6967 155.959 95.2758 158.793 92.0326 159.068L44.1165 162.954C40.8734 163.228 38.0413 160.805 37.7673 157.559L30.6872 70.2791C30.4131 67.033 32.834 64.1983 36.0772 63.924Z" fill="#F88D2B"/>
<path d="M35.2094 63.924L83.1255 60.0378C86.3687 59.7635 89.2007 62.1866 89.4748 65.4328L96.5549 152.713C96.8289 155.959 94.408 158.793 91.1649 159.068L43.2487 162.954C40.0056 163.228 37.1735 160.805 36.8995 157.559L29.7737 70.2791C29.5453 67.033 31.9662 64.1983 35.2094 63.924Z" fill="#FAA75C"/>
<path d="M57.5006 75.8108L38.3159 77.3652C37.2196 77.4567 36.2147 76.6337 36.169 75.5364C36.0777 74.4392 36.8999 73.4333 37.9962 73.3876L57.1809 71.8331C58.2772 71.7417 59.2821 72.5646 59.3278 73.6619C59.4191 74.7592 58.5969 75.7193 57.5006 75.8108Z" fill="#F88D2B"/>
<path d="M92.5807 56.838C95.3052 56.838 97.5139 54.6272 97.5139 51.9002C97.5139 49.1731 95.3052 46.9624 92.5807 46.9624C89.8561 46.9624 87.6475 49.1731 87.6475 51.9002C87.6475 54.6272 89.8561 56.838 92.5807 56.838Z" fill="#B1CAFA"/>
<path d="M90.2968 41.7958C93.5511 41.7958 96.1892 39.1552 96.1892 35.8979C96.1892 32.6406 93.5511 30 90.2968 30C87.0424 30 84.4043 32.6406 84.4043 35.8979C84.4043 39.1552 87.0424 41.7958 90.2968 41.7958Z" fill="#B1CAFA"/>
<path d="M99.1128 65.2052C100.727 65.2052 102.036 63.8952 102.036 62.2791C102.036 60.6631 100.727 59.353 99.1128 59.353C97.4983 59.353 96.1895 60.6631 96.1895 62.2791C96.1895 63.8952 97.4983 65.2052 99.1128 65.2052Z" fill="#B1CAFA"/>
<path d="M101.169 46.9616C102.783 46.9616 104.092 45.6515 104.092 44.0355C104.092 42.4194 102.783 41.1094 101.169 41.1094C99.554 41.1094 98.2451 42.4194 98.2451 44.0355C98.2451 45.6515 99.554 46.9616 101.169 46.9616Z" fill="#B1CAFA"/>
</g>
<defs>
<clipPath id="clip0_2726_30772">
<rect width="158" height="133" fill="white" transform="translate(11 30)"/>
</clipPath>
</defs>
</svg>
