<svg width="24" height="24" viewBox="0 0 24 24" fill="none" xmlns="http://www.w3.org/2000/svg">
<g clip-path="url(#clip0_2726_31461)">
<path d="M18.6495 8.35L15.8595 11.14C15.5395 11.46 15.7595 12 16.2095 12H17.9995C17.9995 15.31 15.3095 18 11.9995 18C11.2095 18 10.4395 17.85 9.74954 17.56C9.38954 17.41 8.97954 17.52 8.70954 17.79C8.19954 18.3 8.37954 19.16 9.04954 19.43C9.95954 19.8 10.9595 20 11.9995 20C16.4195 20 19.9995 16.42 19.9995 12H21.7895C22.2395 12 22.4595 11.46 22.1395 11.15L19.3495 8.36C19.1595 8.16 18.8395 8.16 18.6495 8.35ZM5.99954 12C5.99954 8.69 8.68954 6 11.9995 6C12.7895 6 13.5595 6.15 14.2495 6.44C14.6095 6.59 15.0195 6.48 15.2895 6.21C15.7995 5.7 15.6195 4.84 14.9495 4.57C14.0395 4.2 13.0395 4 11.9995 4C7.57954 4 3.99954 7.58 3.99954 12H2.20954C1.75954 12 1.53954 12.54 1.85954 12.85L4.64954 15.64C4.84954 15.84 5.15954 15.84 5.35954 15.64L8.14954 12.85C8.45954 12.54 8.23954 12 7.78954 12H5.99954Z" fill="#F1F3F5"/>
</g>
<defs>
<clipPath id="clip0_2726_31461">
<rect width="24" height="24" fill="white"/>
</clipPath>
</defs>
</svg>
