<svg width="18" height="18" viewBox="0 0 18 18" fill="none" xmlns="http://www.w3.org/2000/svg">
<g clip-path="url(#clip0_2726_28096)">
<path d="M6.75 8.8125C6.2325 8.8125 5.8125 9.2325 5.8125 9.75C5.8125 10.2675 6.2325 10.6875 6.75 10.6875C7.2675 10.6875 7.6875 10.2675 7.6875 9.75C7.6875 9.2325 7.2675 8.8125 6.75 8.8125ZM11.25 8.8125C10.7325 8.8125 10.3125 9.2325 10.3125 9.75C10.3125 10.2675 10.7325 10.6875 11.25 10.6875C11.7675 10.6875 12.1875 10.2675 12.1875 9.75C12.1875 9.2325 11.7675 8.8125 11.25 8.8125ZM9 1.5C4.86 1.5 1.5 4.86 1.5 9C1.5 13.14 4.86 16.5 9 16.5C13.14 16.5 16.5 13.14 16.5 9C16.5 4.86 13.14 1.5 9 1.5ZM9 15C5.6925 15 3 12.3075 3 9C3 8.7825 3.015 8.565 3.0375 8.355C4.8075 7.5675 6.21 6.12 6.945 4.3275C8.3025 6.2475 10.5375 7.5 13.065 7.5C13.65 7.5 14.2125 7.4325 14.7525 7.305C14.91 7.8375 15 8.4075 15 9C15 12.3075 12.3075 15 9 15Z" fill="white"/>
</g>
<defs>
<clipPath id="clip0_2726_28096">
<rect width="18" height="18" fill="white"/>
</clipPath>
</defs>
</svg>
