<svg width="54" height="54" viewBox="0 0 54 54" fill="none" xmlns="http://www.w3.org/2000/svg">
<path d="M27 26C28.1 26 29 25.1 29 24C29 22.9 28.1 22 27 22C25.9 22 25 22.9 25 24C25 25.1 25.9 26 27 26ZM27 16C31.2 16 35 19.22 35 24.2C35 27.38 32.55 31.12 27.66 35.43C27.28 35.76 26.71 35.76 26.33 35.43C21.45 31.12 19 27.38 19 24.2C19 19.22 22.8 16 27 16Z" fill="#F67066"/>
<path fill-rule="evenodd" clip-rule="evenodd" d="M20.5667 30.7016C17.2202 31.5001 15 32.9033 15 34.5009C15 36.9862 20.3726 39.0009 27 39.0009C33.6274 39.0009 39 36.9862 39 34.5009C39 32.903 36.7791 31.4996 33.4317 30.7012C32.0733 32.5847 30.1766 34.5921 27.7425 36.7242C27.315 37.0931 26.6737 37.0931 26.2463 36.7242C23.8173 34.5922 21.9234 32.585 20.5667 30.7016Z" fill="#F67066"/>
</svg>
