<svg width="28" height="28" viewBox="0 0 28 28" fill="none" xmlns="http://www.w3.org/2000/svg">
    <circle cx="14" cy="14" r="13" fill="#fff"/>
    <g clip-path="url(#4s8gxdz7ra)">
        <path d="m9.042 7.45-.325-.325a.827.827 0 0 0-1.166 0l-.009.008a.82.82 0 0 0 0 1.167l.325.325a.82.82 0 0 0 1.167 0l.008-.008a.82.82 0 0 0 0-1.167zm-2.533 5.3h-.85a.822.822 0 0 0-.825.825v.008c0 .459.367.825.825.825h.842a.811.811 0 0 0 .833-.816v-.009a.823.823 0 0 0-.825-.833zm7.5-8.292h-.008a.823.823 0 0 0-.834.825v.8c0 .459.367.825.825.825h.009a.811.811 0 0 0 .833-.816v-.809a.822.822 0 0 0-.825-.825zm6.45 2.675a.838.838 0 0 0-1.175-.008l-.325.325a.82.82 0 0 0 0 1.167l.008.008a.82.82 0 0 0 1.167 0l.325-.325a.82.82 0 0 0 0-1.167zm-1.508 12.584.325.325a.83.83 0 1 0 1.175-1.175l-.325-.325a.827.827 0 0 0-1.167 0 .823.823 0 0 0-.008 1.175zm1.716-6.142v.008c0 .459.367.825.825.825h.842a.822.822 0 0 0 .825-.825v-.008a.822.822 0 0 0-.825-.825h-.842a.822.822 0 0 0-.825.825zm-6.666-4.992c-2.759 0-5 2.242-5 5 0 2.759 2.241 5 5 5 2.758 0 5-2.241 5-5 0-2.758-2.242-5-5-5zm-.009 14.125h.009a.822.822 0 0 0 .825-.825v-.8a.822.822 0 0 0-.825-.825h-.009a.822.822 0 0 0-.825.825v.8c0 .459.367.825.825.825zm-6.45-2.675a.83.83 0 0 0 1.175 0l.325-.325a.827.827 0 0 0 0-1.166l-.008-.009a.83.83 0 0 0-1.175 0l-.325.325a.838.838 0 0 0 .008 1.175z" fill="#FCB74F"/>
    </g>
    <defs>
        <clipPath id="4s8gxdz7ra">
            <path fill="#fff" transform="translate(4 4)" d="M0 0h20v20H0z"/>
        </clipPath>
    </defs>
</svg>
