<svg width="24" height="24" viewBox="0 0 24 24" fill="none" xmlns="http://www.w3.org/2000/svg">
<path fill-rule="evenodd" clip-rule="evenodd" d="M15.6596 14.2496L21.8296 20.4196H21.8596C22.1468 20.7044 22.2341 21.1341 22.0809 21.5084C21.9277 21.8827 21.5641 22.1279 21.1596 22.1296C20.8924 22.1284 20.6367 22.0204 20.4496 21.8296L14.2796 15.6596L10.6896 19.2496C10.2996 19.6373 9.66967 19.6373 9.27963 19.2496L7.43963 17.4096C6.87361 16.8427 6.70047 15.9927 6.99963 15.2496L3.07963 11.2496C2.51477 10.6866 2.19727 9.92201 2.19727 9.12455C2.19727 8.3271 2.51477 7.56246 3.07963 6.99955L7.07963 2.99955C7.64254 2.43469 8.40718 2.11719 9.20463 2.11719C10.0021 2.11719 10.7667 2.43469 11.3296 2.99955L15.2496 6.99955C15.9869 6.69273 16.8361 6.85391 17.4096 7.40955L19.2496 9.24955C19.6374 9.63959 19.6374 10.2695 19.2496 10.6596L15.6596 14.2496ZM8.82963 15.9996L9.99963 17.1296L17.1296 9.99955L15.9996 8.82955L15.8496 8.99955C15.6619 9.18887 15.4063 9.29535 15.1396 9.29535C14.873 9.29535 14.6174 9.18887 14.4296 8.99955L9.86963 4.49955C9.47959 4.11183 8.84967 4.11183 8.45963 4.49955L4.45963 8.49955C4.07191 8.88959 4.07191 9.51952 4.45963 9.90955L8.99963 14.4296C9.18894 14.6173 9.29543 14.8729 9.29543 15.1396C9.29543 15.4062 9.18894 15.6618 8.99963 15.8496L8.82963 15.9996Z" fill="#A8ACB3"/>
</svg>
